<svg width="32" height="32" fill="none" xmlns="http://www.w3.org/2000/svg"><g clip-path="url(#prefix__clip0_23_476)"><path d="M15.999 29.998c9.334 0 13.999-6.268 13.999-14 0-7.73-4.665-13.998-14-13.998C6.665 2 2 8.268 2 15.999c0 7.731 4.664 13.999 13.999 13.999z" fill="url(#prefix__paint0_radial_23_476)"/><path d="M15.999 29.998c9.334 0 13.999-6.268 13.999-14 0-7.73-4.665-13.998-14-13.998C6.665 2 2 8.268 2 15.999c0 7.731 4.664 13.999 13.999 13.999z" fill="url(#prefix__paint1_radial_23_476)"/><path d="M15.999 29.998c9.334 0 13.999-6.268 13.999-14 0-7.73-4.665-13.998-14-13.998C6.665 2 2 8.268 2 15.999c0 7.731 4.664 13.999 13.999 13.999z" fill="url(#prefix__paint2_radial_23_476)"/><path d="M15.999 29.998c9.334 0 13.999-6.268 13.999-14 0-7.73-4.665-13.998-14-13.998C6.665 2 2 8.268 2 15.999c0 7.731 4.664 13.999 13.999 13.999z" fill="url(#prefix__paint3_radial_23_476)" fill-opacity=".6"/><path d="M15.999 29.998c9.334 0 13.999-6.268 13.999-14 0-7.73-4.665-13.998-14-13.998C6.665 2 2 8.268 2 15.999c0 7.731 4.664 13.999 13.999 13.999z" fill="url(#prefix__paint4_radial_23_476)"/><path d="M15.999 29.998c9.334 0 13.999-6.268 13.999-14 0-7.73-4.665-13.998-14-13.998C6.665 2 2 8.268 2 15.999c0 7.731 4.664 13.999 13.999 13.999z" fill="url(#prefix__paint5_radial_23_476)"/><path d="M15.999 29.998c9.334 0 13.999-6.268 13.999-14 0-7.73-4.665-13.998-14-13.998C6.665 2 2 8.268 2 15.999c0 7.731 4.664 13.999 13.999 13.999z" fill="url(#prefix__paint6_radial_23_476)"/><path d="M15.999 29.998c9.334 0 13.999-6.268 13.999-14 0-7.73-4.665-13.998-14-13.998C6.665 2 2 8.268 2 15.999c0 7.731 4.664 13.999 13.999 13.999z" fill="url(#prefix__paint7_radial_23_476)"/><path opacity=".5" d="M7.5 23a6.5 6.5 0 100-13 6.5 6.5 0 000 13z" fill="url(#prefix__paint8_radial_23_476)"/><path opacity=".5" d="M24.5 23a6.5 6.5 0 100-13 6.5 6.5 0 000 13z" fill="url(#prefix__paint9_radial_23_476)"/><g opacity=".5" filter="url(#prefix__filter0_f_23_476)"><path d="M7.5 13.5s.25-2 2.5-2 2.5 2 2.5 2" stroke="#9A4609" stroke-width="2" stroke-linecap="round"/></g><g opacity=".5" filter="url(#prefix__filter1_f_23_476)"><path d="M18.5 13.5s.5-2 2.5-2 2.5 2 2.5 2" stroke="#9A4609" stroke-width="2" stroke-linecap="round"/></g><path d="M8 13s.25-2 2.5-2 2.5 2 2.5 2" stroke="#43273B" stroke-width="2" stroke-linecap="round" stroke-linejoin="round"/><g opacity=".26" filter="url(#prefix__filter2_f_23_476)"><path d="M8.25 12.75s.25-2 2.5-2 2.5 2 2.5 2" stroke="#fff" stroke-width=".75" stroke-linecap="round" stroke-linejoin="round"/></g><path d="M19 13s.5-2 2.5-2 2.5 2 2.5 2" stroke="#43273B" stroke-width="2" stroke-linecap="round" stroke-linejoin="round"/><g opacity=".26" filter="url(#prefix__filter3_f_23_476)"><path d="M19.25 12.75s.25-2 2.5-2 2.5 2 2.5 2" stroke="#fff" stroke-width=".75" stroke-linecap="round" stroke-linejoin="round"/></g><path d="M6.5 9.5c.333-1 1.6-3 4-3" stroke="url(#prefix__paint10_linear_23_476)" stroke-linecap="round" stroke-linejoin="round"/><path d="M25.5 9.5c-.333-1-1.6-3-4-3" stroke="url(#prefix__paint11_linear_23_476)" stroke-linecap="round" stroke-linejoin="round"/><path d="M10 19c.5.667 2.5 2.5 6 2.5s5.5-1.833 6-2.5" stroke="url(#prefix__paint12_radial_23_476)" stroke-width="2" stroke-linecap="round"/></g><defs><radialGradient id="prefix__paint0_radial_23_476" cx="0" cy="0" r="1" gradientUnits="userSpaceOnUse" gradientTransform="rotate(132.839 10.786 10.065) scale(37.5033)"><stop stop-color="#FFF478"/><stop offset=".475" stop-color="#FFB02E"/><stop offset="1" stop-color="#F70A8D"/></radialGradient><radialGradient id="prefix__paint1_radial_23_476" cx="0" cy="0" r="1" gradientUnits="userSpaceOnUse" gradientTransform="rotate(131.878 10.74 10.193) scale(38.9487)"><stop stop-color="#FFF478"/><stop offset=".475" stop-color="#FFB02E"/><stop offset="1" stop-color="#F70A8D"/></radialGradient><radialGradient id="prefix__paint2_radial_23_476" cx="0" cy="0" r="1" gradientUnits="userSpaceOnUse" gradientTransform="rotate(101.31 2.876 12.808) scale(17.8466 22.8581)"><stop offset=".788" stop-color="#F59639" stop-opacity="0"/><stop offset=".973" stop-color="#FF7DCE"/></radialGradient><radialGradient id="prefix__paint3_radial_23_476" cx="0" cy="0" r="1" gradientUnits="userSpaceOnUse" gradientTransform="matrix(-29 29 -29 -29 18 14)"><stop offset=".315" stop-opacity="0"/><stop offset="1"/></radialGradient><radialGradient id="prefix__paint4_radial_23_476" cx="0" cy="0" r="1" gradientUnits="userSpaceOnUse" gradientTransform="rotate(77.692 -2.555 18.434) scale(28.1469)"><stop offset=".508" stop-color="#7D6133" stop-opacity="0"/><stop offset="1" stop-color="#715B32"/></radialGradient><radialGradient id="prefix__paint5_radial_23_476" cx="0" cy="0" r="1" gradientUnits="userSpaceOnUse" gradientTransform="rotate(55.713 -7.36 23.86) scale(13.3135 9.65032)"><stop stop-color="#FFB849"/><stop offset="1" stop-color="#FFB847" stop-opacity="0"/></radialGradient><radialGradient id="prefix__paint6_radial_23_476" cx="0" cy="0" r="1" gradientUnits="userSpaceOnUse" gradientTransform="matrix(11.49998 2 -2 11.49998 20.5 18)"><stop stop-color="#FFA64B"/><stop offset=".9" stop-color="#FFAE46" stop-opacity="0"/></radialGradient><radialGradient id="prefix__paint7_radial_23_476" cx="0" cy="0" r="1" gradientUnits="userSpaceOnUse" gradientTransform="rotate(43.971 -9.827 29.173) scale(59.0529)"><stop offset=".185" stop-opacity="0"/><stop offset="1" stop-opacity=".4"/></radialGradient><radialGradient id="prefix__paint8_radial_23_476" cx="0" cy="0" r="1" gradientUnits="userSpaceOnUse" gradientTransform="translate(7.505 16.501) scale(6.49487)"><stop stop-color="#F70A8D" stop-opacity=".59"/><stop offset="1" stop-color="#FF6DC6" stop-opacity="0"/></radialGradient><radialGradient id="prefix__paint9_radial_23_476" cx="0" cy="0" r="1" gradientUnits="userSpaceOnUse" gradientTransform="translate(24.505 16.501) scale(6.49487)"><stop stop-color="#F70A8D" stop-opacity=".59"/><stop offset="1" stop-color="#FF6DC6" stop-opacity="0"/></radialGradient><radialGradient id="prefix__paint12_radial_23_476" cx="0" cy="0" r="1" gradientUnits="userSpaceOnUse" gradientTransform="rotate(90 .477 17.397) scale(11.4895)"><stop offset=".103" stop-color="#482641"/><stop offset=".299" stop-color="#503A4A"/><stop offset=".556" stop-color="#483637"/></radialGradient><filter id="prefix__filter0_f_23_476" x="5" y="9" width="10" height="7" filterUnits="userSpaceOnUse" color-interpolation-filters="sRGB"><feFlood flood-opacity="0" result="BackgroundImageFix"/><feBlend in="SourceGraphic" in2="BackgroundImageFix" result="shape"/><feGaussianBlur stdDeviation=".75" result="effect1_foregroundBlur_23_476"/></filter><filter id="prefix__filter1_f_23_476" x="16" y="9" width="10.001" height="7" filterUnits="userSpaceOnUse" color-interpolation-filters="sRGB"><feFlood flood-opacity="0" result="BackgroundImageFix"/><feBlend in="SourceGraphic" in2="BackgroundImageFix" result="shape"/><feGaussianBlur stdDeviation=".75" result="effect1_foregroundBlur_23_476"/></filter><filter id="prefix__filter2_f_23_476" x="6.375" y="8.875" width="8.75" height="5.75" filterUnits="userSpaceOnUse" color-interpolation-filters="sRGB"><feFlood flood-opacity="0" result="BackgroundImageFix"/><feBlend in="SourceGraphic" in2="BackgroundImageFix" result="shape"/><feGaussianBlur stdDeviation=".75" result="effect1_foregroundBlur_23_476"/></filter><filter id="prefix__filter3_f_23_476" x="17.375" y="8.875" width="8.75" height="5.75" filterUnits="userSpaceOnUse" color-interpolation-filters="sRGB"><feFlood flood-opacity="0" result="BackgroundImageFix"/><feBlend in="SourceGraphic" in2="BackgroundImageFix" result="shape"/><feGaussianBlur stdDeviation=".75" result="effect1_foregroundBlur_23_476"/></filter><linearGradient id="prefix__paint10_linear_23_476" x1="6.833" y1="10.4" x2="6.833" y2="8.6" gradientUnits="userSpaceOnUse"><stop offset=".03" stop-color="#524049"/><stop offset="1" stop-color="#4A2C42"/></linearGradient><linearGradient id="prefix__paint11_linear_23_476" x1="25.167" y1="10.4" x2="25.167" y2="8.6" gradientUnits="userSpaceOnUse"><stop offset=".03" stop-color="#524049"/><stop offset="1" stop-color="#4A2C42"/></linearGradient><clipPath id="prefix__clip0_23_476"><path fill="#fff" d="M0 0h32v32H0z"/></clipPath></defs></svg>